Love for All and Sharing is the first step to solving all the problems of humanity.

Website I want to share. 
               
   http://www.scenetime.com
 
 
  Credit to EVERYONE for sharing and seeding back
 especially to SCENETIME.COM where i get all my 
 downloads.


 support www.scenetime.com to grow faster.

                             
                                                            
                                                   

.                 ..................................NFO:....................................

[center][img]http://www.cyber-cinema.com/classic/cocktail88.jpg[/img]

[title]Cocktail 1988 DVDRip XviD AC3-LEGi0N[/title][/center]

[img]http://leetleech.org/images/48874973695367351744.png[/img]
[color=red]General[/color]
Format: AVI
File size: 1.32 GiB
Duration: 1h 39mn
Overall bit rate: 1 901 Kbps
IMDb Rating: 5.3/10   24,609 votes
IMDb Link  : http://www.imdb.com/title/tt0094889/
Genre: Comedy | Romance
Source: RETAiL  

[color=red]Video[/color]
Format : MPEG-4 Visual
Format profile : Advanced Simple@L5
Format settings, BVOP : Yes
Format settings, QPel : No
Format settings, GMC : No warppoints
Format settings, Matrix : Default (H.263)
Muxing mode : Packed bitstream
Codec ID : XVID
Codec ID/Hint : XviD
Duration : 1h 39mn
Bit rate : 1 512 Kbps
Width : 720 pixels
Height : 368 pixels
Display aspect ratio  : 1.957
Frame rate : 25.000 fps
Color space : YUV
Chroma subsampling : 4:2:0
Bit depth : 8 bits
Scan type : Progressive
Bits/(Pixel*Frame) : 0.228
Stream size : 1.05 GiB (80%)

[color=red]Audio[/color]
Bit rate : 384 Kbps
Channel(s) : 6 channels
Channel positions : Front: L C R, Side: L R, LFE
Sampling rate : 48.0 KHz
Stream size : 273 MiB (20%)


[img]http://leetleech.org/images/89524873606771859129.png[/img]

After leaving the Army, Brian Flanagan tries to get a 
marketing job in New York. But without a college degree, 
this was not possible. 
He then decides to start studying for a business degree at the 
local City College and gets a part time job as a bartender. 
He realizes that its not that easy, but when his new boss Douglas Coughlin 
teaches him the secrets of the bar trade and they become 
the most famous bartenders in town

[img]http://leetleech.org/images/84434050717770922575.png[/img]


Tom Cruise	... Brian Flanagan
Bryan Brown	... Doug Coughlin
Elisabeth Shue	... Jordan Mooney
Lisa Banes	... Bonnie
Laurence Luckinbill... 	Mr. Mooney
Kelly Lynch	... Kerry Coughlin
Gina Gershon	... Coral
Ron Dean	... Uncle Pat
Robert Donley	... Eddie
Ellen Foley	... Eleanor
Andrea Morse	... Dulcy
Chris Owens	... Soldier
Justin Louis	... Soldier
John Graham	... Soldier
Richard Thorn	... Soldier

[color=red]GREETZ[/color]

Noir | Joshua08 | bigimac | LUSi |

kempas | KaN1vE | mike160 | skillz |

Lungbuster | Sheikh | dillon1369 |

0B5C3N3 | FLAWL3SS | AND ALL P2P!


[img]http://leetleech.org/images/95521316153253938506.png[/img]

[center][img]http://leetleech.org/images/20579889125631643445.png[/img]
[img]http://leetleech.org/images/67501580964556274861.png[/img]
[img]http://leetleech.org/images/80281666073199119110.png[/img]
[img]http://leetleech.org/images/90756825408270880196.png[/img]